<svg xmlns="http://www.w3.org/2000/svg" xmlns:xlink="http://www.w3.org/1999/xlink" width="70" height="70" viewBox="0 0 70 70">
  <defs>
    <linearGradient id="background" x1="100%" y1="0%" x2="0%" y2="100%">
      <stop offset="0" stop-color="#468a98"/>
      <stop offset="1" stop-color="#316774"/>
    </linearGradient>
    <clipPath id="tile"><rect width="70" height="70" rx="3"/></clipPath>
    <g id="catalog">
      <path fill-rule="evenodd" d="M15 20c6-2 13-2 19 2v29c-6-4-13-4-19-2V20zm21 2c6-4 13-4 19-2v29c-6-2-13-2-19 2V22zM19 25v11h11V25H19zm0 15v2h11v-2H19zm0 5v2h8v-2h-8zm21-19v2h11v-2H40zm0 5v2h11v-2H40zm0 5v2h11v-2H40zm0 5v2h8v-2h-8z"/>
      <path d="m20 35 3.5-4 2.5 2 3-3.5V35z"/>
      <circle cx="22.5" cy="28.5" r="1.25"/>
    </g>
  </defs>
  <g clip-path="url(#tile)">
    <rect width="70" height="70" fill="url(#background)"/>
    <path d="M15 20 0 35v35h34l21-21V20c-7-2-13-1-20 3-7-4-13-5-20-3z" fill="#163c48" opacity=".3"/>
    <path d="M3 1h64c1.5 0 2.5.5 3 2V0H0v3c.5-1.5 1.5-2 3-2z" fill="#fff" opacity=".3"/>
    <path d="M3 69h64c1.5 0 2.5-1 3-3v4H0v-4c.5 2 1.5 3 3 3z" fill="#000" opacity=".25"/>
    <g fill="#000" opacity=".24" transform="translate(0 2)">
      <use xlink:href="#catalog"/>
    </g>
    <use xlink:href="#catalog" fill="#fff"/>
  </g>
</svg>
